<svg width="86" height="81" viewBox="0 0 86 81" fill="none" xmlns="http://www.w3.org/2000/svg">
<path fill-rule="evenodd" clip-rule="evenodd" d="M38.373 1.06776L37.8007 6.22972L36.969 6.13751L34.9265 2.35177L34.8837 2.34702L34.4938 5.86311L33.5587 5.75944L34.131 0.597473L34.9678 0.690246L37.0075 4.47822L37.0529 4.48325L37.4429 0.964648L38.373 1.06776ZM27.0265 1.78627L27.6396 6.94355L31.0139 6.54246L30.9209 5.75929L28.4807 6.04934L28.3134 4.64166L30.5596 4.37466L30.4665 3.5915L28.2203 3.8585L28.0539 2.45839L30.4739 2.17073L30.3808 1.38757L27.0265 1.78627ZM23.3427 5.5664C23.2464 5.46026 23.1416 5.37394 23.0284 5.30744C22.916 5.2387 22.7966 5.19095 22.6703 5.16419C22.5454 5.13672 22.4151 5.1333 22.2791 5.15394C22.1425 5.17306 22.0037 5.21556 21.8629 5.28145C21.6102 5.39962 21.4148 5.56847 21.2767 5.78796C21.1386 6.00746 21.0705 6.26699 21.0725 6.56655C21.0753 6.86386 21.159 7.18863 21.3238 7.54085C21.4899 7.89614 21.6866 8.17093 21.9137 8.3652C22.1408 8.55947 22.384 8.67438 22.6432 8.70991C22.9017 8.74391 23.1627 8.69931 23.4261 8.57613C23.665 8.4644 23.8503 8.32176 23.9819 8.14823C24.115 7.97398 24.1897 7.78042 24.2058 7.56756C24.2206 7.36257 24.1795 7.15128 24.0826 6.93369L22.9986 7.44065L22.6871 6.77448L24.596 5.88171L24.8603 6.44681C25.0486 6.84957 25.1258 7.23808 25.0918 7.61233C25.0578 7.98657 24.928 8.32352 24.7023 8.62317C24.4759 8.92128 24.1682 9.1613 23.7793 9.34321C23.3459 9.5459 22.9198 9.62663 22.5011 9.58541C22.0833 9.54195 21.6983 9.38324 21.3462 9.10931C20.995 8.83312 20.7033 8.44694 20.4712 7.95076C20.2936 7.57097 20.1886 7.2067 20.1561 6.85794C20.1252 6.50846 20.1583 6.1841 20.2554 5.88487C20.3517 5.58411 20.5054 5.31812 20.7164 5.08692C20.9267 4.85419 21.1858 4.66584 21.4936 4.52188C21.754 4.40012 22.0146 4.32489 22.2755 4.29618C22.5357 4.26593 22.7857 4.27966 23.0255 4.33737C23.2668 4.39437 23.4888 4.49208 23.6917 4.63051C23.8945 4.76894 24.0676 4.94554 24.211 5.16031L23.3427 5.5664ZM19.6761 11.8021L16.5321 7.66826L15.7832 8.23781L18.9272 12.3716L19.6761 11.8021ZM14.9628 16.5623L11.1266 13.0614L11.7608 12.3664L15.0145 15.3357L16.5564 13.6461L17.1389 14.1777L14.9628 16.5623ZM7.67168 17.5176L11.508 21.0185L13.6841 18.6339L13.1015 18.1023L11.5596 19.7919L8.30588 16.8227L7.67168 17.5176ZM8.08683 28.0209L3.68342 25.2671L5.47445 22.4032L6.14313 22.8214L4.85095 24.8876L6.04641 25.6352L7.24581 23.7174L7.91449 24.1355L6.71509 26.0534L7.917 26.8051L9.21993 24.7216L9.88862 25.1398L8.08683 28.0209ZM0.977773 33.2286L1.72386 33.4843L2.24425 31.9657L6.41127 33.3937L6.7138 32.5109L2.54678 31.0829L3.06717 29.5643L2.32108 29.3087L0.977773 33.2286ZM0.583157 36.8512L5.73424 37.5143L5.6274 38.3443L1.8063 40.3198L1.8008 40.3625L5.30947 40.8142L5.18936 41.7473L0.038269 41.0843L0.145755 40.2492L3.96905 38.2766L3.97488 38.2313L0.463689 37.7793L0.583157 36.8512ZM5.47106 46.3426L0.356954 47.2477L0.520924 48.1741L5.63503 47.269L5.47106 46.3426ZM9.8999 59.3841L5.0417 61.2202L4.70909 60.3402L8.82955 58.7829L8.02088 56.6432L8.75862 56.3644L9.8999 59.3841ZM14.6436 65.8918L14.1162 65.0371L12.8008 65.3441L11.7755 63.6824L12.6395 62.6437L12.1122 61.7891L8.65362 66.0744L9.26351 67.0629L14.6436 65.8918ZM11.2657 64.2953L12.0246 65.5252L9.87565 66.0266L9.85435 65.9921L11.2657 64.2953ZM13.9019 72.0215L17.5884 68.3632L18.2511 69.031L14.5646 72.6893L13.9019 72.0215ZM57.7698 68.8231L56.906 69.3353L57.1897 70.6559L55.5102 71.6518L54.4869 70.7697L53.6231 71.2819L57.8469 74.8153L58.846 74.2229L57.7698 68.8231ZM56.1141 72.1723L57.7858 73.6133L57.8207 73.5926L57.3571 71.4352L56.1141 72.1723ZM52.7319 77.3957L51.0337 72.4876L50.1446 72.7952L50.7665 74.5926L49.8617 74.9057L48.2753 73.442L47.2831 73.7853L49.017 75.3611C48.9895 75.385 48.9632 75.4095 48.9379 75.4346C48.7227 75.6504 48.5887 75.8963 48.5357 76.1722C48.4816 76.4503 48.509 76.7467 48.6179 77.0615C48.7263 77.3746 48.8874 77.6257 49.1013 77.8147C49.3141 78.0058 49.5718 78.1224 49.8743 78.1644C50.1753 78.2069 50.5143 78.163 50.8913 78.0325L52.7319 77.3957ZM50.2023 75.6144L51.0219 75.3308L51.5857 76.9604L50.7709 77.2423C50.5488 77.3192 50.3562 77.3492 50.1929 77.3323C50.0302 77.317 49.8929 77.259 49.7811 77.1581C49.6698 77.0589 49.5841 76.9222 49.5238 76.748C49.4636 76.5739 49.4471 76.415 49.4743 76.2714C49.5005 76.13 49.5731 76.0038 49.6922 75.8928C49.8117 75.7835 49.9818 75.6906 50.2023 75.6144ZM44.7397 79.0418L44.8219 79.8262L40.7008 80.258L40.6186 79.4736L42.2151 79.3063L41.7562 74.9254L42.6843 74.8282L43.1432 79.2091L44.7397 79.0418ZM36.318 80.5676L36.7147 75.3892L35.7767 75.3173L35.6081 77.5172L33.4563 77.3523L33.3961 78.1386L35.5478 78.3035L35.4401 79.7094L33.0608 79.5271L33.0005 80.3134L36.318 80.5676ZM27.8471 79.3127L29.1688 74.2901L30.0787 74.5296L28.7569 79.5522L27.8471 79.3127ZM20.3228 74.2416L19.4772 73.812C19.381 74.0874 19.3384 74.354 19.3496 74.6119C19.3585 74.8705 19.4144 75.1132 19.5173 75.3399C19.6194 75.5682 19.7629 75.7747 19.9477 75.9597C20.1325 76.1446 20.3538 76.3025 20.6115 76.4335C21.0154 76.6387 21.425 76.7283 21.8403 76.7022C22.2555 76.6762 22.6462 76.5324 23.0124 76.2709C23.3777 76.0109 23.6871 75.6314 23.9406 75.1325C24.1933 74.6351 24.3181 74.1619 24.3149 73.7128C24.3118 73.2636 24.1983 72.8637 23.9745 72.5129C23.7507 72.1622 23.4353 71.8834 23.0283 71.6766C22.7525 71.5365 22.4809 71.4497 22.2135 71.4162C21.9452 71.3842 21.6896 71.3985 21.4465 71.4589C21.2027 71.5209 20.9797 71.6219 20.7777 71.7619C20.5742 71.9013 20.4007 72.0729 20.2572 72.2769L21.1005 72.711C21.195 72.5884 21.303 72.4916 21.4244 72.4205C21.5444 72.3487 21.6717 72.3015 21.8064 72.2789C21.9396 72.2556 22.0769 72.2561 22.2181 72.2804C22.357 72.3055 22.4959 72.3533 22.6345 72.4238C22.8847 72.5509 23.076 72.7249 23.2084 72.9458C23.3386 73.1674 23.3981 73.4271 23.3871 73.7249C23.3739 74.0235 23.2773 74.3499 23.0973 74.7041C22.9204 75.0522 22.7157 75.319 22.4831 75.5042C22.2498 75.691 22.0041 75.7975 21.7461 75.8238C21.4874 75.8516 21.2322 75.8016 20.9804 75.6737C20.8388 75.6017 20.7168 75.5151 20.6147 75.4139C20.5102 75.3134 20.4289 75.201 20.3707 75.0766C20.3126 74.9523 20.2786 74.8194 20.269 74.6779C20.2585 74.538 20.2765 74.3925 20.3228 74.2416ZM44.7341 2.86317L45.6397 3.14517C45.6885 2.85759 45.6858 2.58761 45.6316 2.33522C45.5795 2.08173 45.4838 1.85182 45.3444 1.64551C45.2055 1.43759 45.0295 1.25793 44.8164 1.10656C44.6032 0.955186 44.3586 0.83652 44.0826 0.75056C43.65 0.615841 43.2312 0.59608 42.8262 0.691281C42.4211 0.786482 42.06 0.993638 41.7429 1.31275C41.4262 1.63025 41.1846 2.05614 41.0183 2.59043C40.8524 3.1231 40.8086 3.61057 40.8869 4.05284C40.9652 4.49511 41.144 4.87041 41.4234 5.17875C41.7027 5.48709 42.0603 5.70912 42.4961 5.84484C42.7915 5.93684 43.0739 5.97695 43.3431 5.96519C43.6129 5.95182 43.8626 5.89499 44.0921 5.79472C44.3222 5.69283 44.525 5.55592 44.7008 5.384C44.8781 5.21257 45.0204 5.01431 45.1277 4.78919L44.2237 4.50234C44.151 4.63907 44.0607 4.75262 43.9529 4.84299C43.8467 4.93387 43.7291 5.00171 43.6 5.04651C43.4726 5.09182 43.3372 5.11429 43.1939 5.11393C43.0527 5.11245 42.9078 5.08859 42.7593 5.04235C42.4914 4.9589 42.2737 4.81938 42.1062 4.62378C41.9408 4.42708 41.8386 4.181 41.7995 3.88553C41.7626 3.58896 41.8032 3.25101 41.9214 2.87168C42.0375 2.49881 42.1947 2.20159 42.393 1.98002C42.5917 1.75683 42.8161 1.61068 43.066 1.54155C43.3165 1.47081 43.5765 1.47741 43.8461 1.56136C43.9978 1.60861 44.1325 1.67358 44.2502 1.75627C44.37 1.83784 44.4689 1.93507 44.5471 2.04795C44.6253 2.16083 44.681 2.28618 44.7142 2.42402C44.7479 2.56024 44.7546 2.70662 44.7341 2.86317ZM48.153 6.34296L50.5884 1.75579L53.5718 3.33975L53.202 4.03633L51.0495 2.89355L50.3883 4.1389L52.3863 5.19963L52.0164 5.89622L50.0185 4.83548L49.3538 6.08755L51.5242 7.23985L51.1543 7.93643L48.153 6.34296ZM33.7343 36.505C32.0916 36.5481 30.7948 37.9147 30.8379 39.5575C30.881 41.2003 32.2477 42.497 33.8905 42.4539C35.5332 42.4108 36.83 41.0441 36.7869 39.4014C36.7438 37.7586 35.3771 36.4619 33.7343 36.505ZM46.2272 53H50.6591L54.1686 43.1136H68.2859L71.7954 53H76.2272L63.4091 18.0909H59.0454L46.2272 53ZM66.9547 39.3636H55.4998L61.0909 23.6136H61.3636L66.9547 39.3636ZM85.892 53V18.0909H81.6647V53H85.892Z" fill="black"/>
</svg>
