<svg width="95" height="100" viewBox="0 0 95 100" fill="none" xmlns="http://www.w3.org/2000/svg">
<path d="M88.9916 78C80.2782 90.1125 66.0602 98 50 98C23.4903 98 2 76.5097 2 50C2 23.4903 23.4903 2 50 2C68.5803 2 84.695 12.557 92.6727 28H94.9124C86.7736 11.4161 69.72 0 50 0C22.3858 0 0 22.3858 0 50C0 77.6142 22.3858 100 50 100C67.2396 100 82.4415 91.2751 91.4307 78H88.9916Z" fill="black"/>
<path d="M46.6 52.6L49 51L49.5547 51.8321L28.5547 65.8321L28 65L45.7515 53.1657L18.2929 25.7071L19 25L46.6 52.6Z" fill="black"/>
<path d="M51 54C51 56.2091 49.2091 58 47 58C44.7909 58 43 56.2091 43 54C43 51.7909 44.7909 50 47 50C49.2091 50 51 51.7909 51 54Z" fill="#881337"/>
</svg>
