<svg width="142" height="28" viewBox="0 0 142 28" fill="none" xmlns="http://www.w3.org/2000/svg">
<g clip-path="url(#clip0_435_942)">
<path d="M8.30072 18.602L8.30064 18.6021L8.30553 18.6104C8.79711 19.4423 9.45986 20.1231 10.2876 20.6498L10.2986 20.6568L10.3099 20.6633C11.1895 21.1605 12.1771 21.404 13.26 21.404C14.3114 21.404 15.2674 21.159 16.1144 20.6585L16.1144 20.6585L16.12 20.6551C16.9835 20.1295 17.6677 19.4476 18.1625 18.6104L18.1625 18.6104L18.1673 18.602C18.6614 17.728 18.908 16.7762 18.908 15.756V2.62399C18.908 1.79557 19.5796 1.12399 20.408 1.12399H24.468C25.2964 1.12399 25.968 1.79557 25.968 2.62399V15.964C25.968 18.1003 25.4685 20.0422 24.4738 21.8C23.4839 23.5152 22.047 24.8901 20.1465 25.924C18.2945 26.9158 16.0232 27.424 13.312 27.424C10.6388 27.424 8.34765 26.917 6.42234 25.9223C4.52218 24.8879 3.0671 23.5117 2.04256 21.7938C1.01532 20.0368 0.5 18.0972 0.5 15.964V2.62399C0.5 1.79557 1.17157 1.12399 2 1.12399H6.06C6.88843 1.12399 7.56 1.79557 7.56 2.62399V15.756C7.56 16.7762 7.80666 17.728 8.30072 18.602Z" stroke="#881337"/>
<path d="M30.5095 6.80803C31.5346 5.08845 32.991 3.71101 34.8933 2.67612C36.8179 1.64784 39.1078 1.12399 41.78 1.12399C44.4894 1.12399 46.759 1.64883 48.6098 2.67344L48.6098 2.67345L48.6131 2.67524C50.515 3.70957 51.9527 5.08544 52.9429 6.80186C53.9362 8.52351 54.436 10.447 54.436 12.584V25.924C54.436 26.7524 53.7644 27.424 52.936 27.424H48.876C48.0476 27.424 47.376 26.7524 47.376 25.924V12.792C47.376 11.7735 47.1301 10.8369 46.6329 9.9938C46.1398 9.12313 45.455 8.43727 44.5854 7.94314C43.7392 7.40769 42.7819 7.14399 41.728 7.14399C40.6395 7.14399 39.6478 7.40765 38.7668 7.94321C37.9288 8.43908 37.2626 9.12584 36.7711 9.99378C36.2739 10.8368 36.028 11.7734 36.028 12.792V25.924C36.028 26.7524 35.3564 27.424 34.528 27.424H30.468C29.6396 27.424 28.968 26.7524 28.968 25.924V12.584C28.968 10.4501 29.4836 8.52879 30.5095 6.80803Z" stroke="#881337"/>
<path d="M57.436 25.924V9.1C57.436 6.77257 58.0979 5.00524 59.3696 3.73356C60.6399 2.46319 62.4236 1.8 64.788 1.8H70.536C71.3644 1.8 72.036 2.47158 72.036 3.3V5.852C72.036 6.68043 71.3644 7.352 70.536 7.352H66.764C66.1489 7.352 65.6094 7.57592 65.1717 8.00928C64.7136 8.42659 64.496 8.98097 64.496 9.62V25.924C64.496 26.7524 63.8244 27.424 62.996 27.424H58.936C58.1076 27.424 57.436 26.7524 57.436 25.924Z" stroke="#881337"/>
<path d="M75.036 25.924V3.248C75.036 2.41957 75.7076 1.748 76.536 1.748H80.648C81.4764 1.748 82.148 2.41957 82.148 3.248V25.924C82.148 26.7524 81.4764 27.424 80.648 27.424H76.536C75.7076 27.424 75.036 26.7524 75.036 25.924Z" stroke="#881337"/>
<path d="M99.108 18.42C101.571 18.42 103.568 16.4232 103.568 13.96C103.568 11.4968 101.571 9.5 99.108 9.5C96.6448 9.5 94.648 11.4968 94.648 13.96C94.648 16.4232 96.6448 18.42 99.108 18.42Z" fill="#881337"/>
<path d="M99.104 27.924C96.3653 27.924 93.904 27.3173 91.72 26.104C89.536 24.8907 87.8027 23.2267 86.52 21.112C85.272 18.9973 84.648 16.6227 84.648 13.988C84.648 11.3187 85.272 8.944 86.52 6.864C87.8027 4.74933 89.536 3.08533 91.72 1.872C93.904 0.624002 96.3653 0 99.104 0C101.843 0 104.287 0.624002 106.436 1.872C108.62 3.08533 110.336 4.74933 111.584 6.864C112.867 8.944 113.508 11.3187 113.508 13.988C113.508 16.6227 112.867 18.9973 111.584 21.112C110.336 23.2267 108.62 24.8907 106.436 26.104C104.252 27.3173 101.808 27.924 99.104 27.924ZM99.104 20.904C100.387 20.904 101.496 20.592 102.432 19.968C103.368 19.344 104.096 18.512 104.616 17.472C105.136 16.432 105.396 15.2533 105.396 13.936C105.396 12.6533 105.136 11.492 104.616 10.452C104.096 9.412 103.368 8.58 102.432 7.956C101.496 7.332 100.387 7.02 99.104 7.02C97.8213 7.02 96.6947 7.332 95.724 7.956C94.788 8.58 94.06 9.412 93.54 10.452C93.02 11.492 92.76 12.6533 92.76 13.936C92.76 15.2533 93.02 16.432 93.54 17.472C94.06 18.512 94.788 19.344 95.724 19.968C96.6947 20.592 97.8213 20.904 99.104 20.904Z" fill="#1C1F21"/>
<path d="M117.549 6.80803C118.575 5.08845 120.031 3.71101 121.933 2.67612C123.858 1.64784 126.148 1.12399 128.82 1.12399C131.529 1.12399 133.799 1.64883 135.65 2.67344L135.65 2.67345L135.653 2.67524C137.555 3.70957 138.993 5.08544 139.983 6.80186C140.976 8.52351 141.476 10.447 141.476 12.584V25.924C141.476 26.7524 140.804 27.424 139.976 27.424H135.916C135.088 27.424 134.416 26.7524 134.416 25.924V12.792C134.416 11.7735 134.17 10.8369 133.673 9.9938C133.18 9.12313 132.495 8.43727 131.625 7.94314C130.779 7.40769 129.822 7.14399 128.768 7.14399C127.679 7.14399 126.688 7.40765 125.807 7.94321C124.969 8.43908 124.303 9.12584 123.811 9.99378C123.314 10.8368 123.068 11.7734 123.068 12.792V25.924C123.068 26.7524 122.396 27.424 121.568 27.424H117.508C116.68 27.424 116.008 26.7524 116.008 25.924V12.584C116.008 10.4501 116.524 8.52879 117.549 6.80803Z" stroke="#881337"/>
</g>
<defs>
<clipPath id="clip0_435_942">
<rect width="141.976" height="27.924" fill="white"/>
</clipPath>
</defs>
</svg>
