<svg width="142" height="28" viewBox="0 0 142 28" fill="none" xmlns="http://www.w3.org/2000/svg">
<g clip-path="url(#clip0_411_1026)">
<path d="M13.312 27.924C10.5733 27.924 8.19867 27.404 6.188 26.364C4.212 25.2893 2.68667 23.8507 1.612 22.048C0.537333 20.2107 0 18.1827 0 15.964V2.62399C0 1.51942 0.895431 0.623993 2 0.623993H6.06C7.16457 0.623993 8.06 1.51942 8.06 2.62399V15.756C8.06 16.692 8.28533 17.5587 8.736 18.356C9.18667 19.1187 9.79333 19.7427 10.556 20.228C11.3533 20.6787 12.2547 20.904 13.26 20.904C14.2307 20.904 15.0973 20.6787 15.86 20.228C16.6573 19.7427 17.2813 19.1187 17.732 18.356C18.1827 17.5587 18.408 16.692 18.408 15.756V2.62399C18.408 1.51942 19.3034 0.623993 20.408 0.623993H24.468C25.5726 0.623993 26.468 1.51942 26.468 2.62399V15.964C26.468 18.1827 25.948 20.2107 24.908 22.048C23.868 23.8507 22.36 25.2893 20.384 26.364C18.4427 27.404 16.0853 27.924 13.312 27.924Z" fill="white"/>
<path d="M30.468 27.924C29.3634 27.924 28.468 27.0286 28.468 25.924V12.584C28.468 10.3653 29.0053 8.35466 30.08 6.55199C31.1547 4.74932 32.68 3.31066 34.656 2.23599C36.6667 1.16132 39.0413 0.623993 41.78 0.623993C44.5533 0.623993 46.9107 1.16132 48.852 2.23599C50.828 3.31066 52.336 4.74932 53.376 6.55199C54.416 8.35466 54.936 10.3653 54.936 12.584V25.924C54.936 27.0286 54.0406 27.924 52.936 27.924H48.876C47.7714 27.924 46.876 27.0286 46.876 25.924V12.792C46.876 11.856 46.6507 11.0067 46.2 10.244C45.7493 9.44666 45.1253 8.82266 44.328 8.37199C43.5653 7.88666 42.6987 7.64399 41.728 7.64399C40.7227 7.64399 39.8213 7.88666 39.024 8.37199C38.2613 8.82266 37.6547 9.44666 37.204 10.244C36.7533 11.0067 36.528 11.856 36.528 12.792V25.924C36.528 27.0286 35.6326 27.924 34.528 27.924H30.468Z" fill="white"/>
<path d="M58.936 27.924C57.8314 27.924 56.936 27.0286 56.936 25.924V9.1C56.936 6.67333 57.6293 4.76667 59.016 3.38C60.4027 1.99333 62.3267 1.3 64.788 1.3H70.536C71.6406 1.3 72.536 2.19543 72.536 3.3V5.852C72.536 6.95657 71.6406 7.852 70.536 7.852H66.764C66.2787 7.852 65.8627 8.02533 65.516 8.372C65.1693 8.684 64.996 9.1 64.996 9.62V25.924C64.996 27.0286 64.1006 27.924 62.996 27.924H58.936Z" fill="white"/>
<path d="M76.536 1.248C75.4314 1.248 74.536 2.14343 74.536 3.248V25.924C74.536 27.0286 75.4314 27.924 76.536 27.924H80.648C81.7526 27.924 82.648 27.0286 82.648 25.924V3.248C82.648 2.14343 81.7526 1.248 80.648 1.248H76.536Z" fill="white"/>
<path d="M99.108 18.42C101.571 18.42 103.568 16.4232 103.568 13.96C103.568 11.4968 101.571 9.5 99.108 9.5C96.6448 9.5 94.648 11.4968 94.648 13.96C94.648 16.4232 96.6448 18.42 99.108 18.42Z" fill="#881337"/>
<path d="M99.104 27.924C96.3653 27.924 93.904 27.3173 91.72 26.104C89.536 24.8907 87.8027 23.2267 86.52 21.112C85.272 18.9973 84.648 16.6227 84.648 13.988C84.648 11.3187 85.272 8.944 86.52 6.864C87.8027 4.74933 89.536 3.08533 91.72 1.872C93.904 0.624002 96.3653 0 99.104 0C101.843 0 104.287 0.624002 106.436 1.872C108.62 3.08533 110.336 4.74933 111.584 6.864C112.867 8.944 113.508 11.3187 113.508 13.988C113.508 16.6227 112.867 18.9973 111.584 21.112C110.336 23.2267 108.62 24.8907 106.436 26.104C104.252 27.3173 101.808 27.924 99.104 27.924ZM99.104 20.904C100.387 20.904 101.496 20.592 102.432 19.968C103.368 19.344 104.096 18.512 104.616 17.472C105.136 16.432 105.396 15.2533 105.396 13.936C105.396 12.6533 105.136 11.492 104.616 10.452C104.096 9.412 103.368 8.58 102.432 7.956C101.496 7.332 100.387 7.02 99.104 7.02C97.8213 7.02 96.6947 7.332 95.724 7.956C94.788 8.58 94.06 9.412 93.54 10.452C93.02 11.492 92.76 12.6533 92.76 13.936C92.76 15.2533 93.02 16.432 93.54 17.472C94.06 18.512 94.788 19.344 95.724 19.968C96.6947 20.592 97.8213 20.904 99.104 20.904Z" fill="white"/>
<path d="M117.508 27.924C116.403 27.924 115.508 27.0286 115.508 25.924V12.584C115.508 10.3653 116.045 8.35466 117.12 6.55199C118.195 4.74932 119.72 3.31066 121.696 2.23599C123.707 1.16132 126.081 0.623993 128.82 0.623993C131.593 0.623993 133.951 1.16132 135.892 2.23599C137.868 3.31066 139.376 4.74932 140.416 6.55199C141.456 8.35466 141.976 10.3653 141.976 12.584V25.924C141.976 27.0286 141.081 27.924 139.976 27.924H135.916C134.811 27.924 133.916 27.0286 133.916 25.924V12.792C133.916 11.856 133.691 11.0067 133.24 10.244C132.789 9.44666 132.165 8.82266 131.368 8.37199C130.605 7.88666 129.739 7.64399 128.768 7.64399C127.763 7.64399 126.861 7.88666 126.064 8.37199C125.301 8.82266 124.695 9.44666 124.244 10.244C123.793 11.0067 123.568 11.856 123.568 12.792V25.924C123.568 27.0286 122.673 27.924 121.568 27.924H117.508Z" fill="white"/>
</g>
<defs>
<clipPath id="clip0_411_1026">
<rect width="141.976" height="27.924" fill="white"/>
</clipPath>
</defs>
</svg>
